HIERARCHY
ROOT Hips
{
	OFFSET 0.000000 0.000000 0.000000
	CHANNELS 6 Xposition Yposition Zposition Zrotation Yrotation Xrotation 
	JOINT LHipJoint
	{
		OFFSET 0.000000 0.000000 0.000000
		CHANNELS 3 Zrotation Yrotation Xrotation
		JOINT LeftUpLeg
		{
			OFFSET 1.363060 -1.794630 0.839290
			CHANNELS 3 Zrotation Yrotation Xrotation
			JOINT LeftLeg
			{
				OFFSET 2.448110 -6.726130 0.000000
				CHANNELS 3 Zrotation Yrotation Xrotation
				JOINT LeftFoot
				{
					OFFSET 2.562200 -7.039590 0.000000
					CHANNELS 3 Zrotation Yrotation Xrotation
					JOINT LeftToeBase
					{
						OFFSET 0.157640 -0.433110 2.322550
						CHANNELS 3 Zrotation Yrotation Xrotation
						End Site
						{
							OFFSET 0.000000 0.000000 0.000000
						}
					}
				}
			}
		}
	}
	JOINT RHipJoint
	{
		OFFSET 0.000000 0.000000 0.000000
		CHANNELS 3 Zrotation Yrotation Xrotation
		JOINT RightUpLeg
		{
			OFFSET -1.305520 -1.794630 0.839290
			CHANNELS 3 Zrotation Yrotation Xrotation
			JOINT RightLeg
			{
				OFFSET -2.542530 -6.985550 0.000000
				CHANNELS 3 Zrotation Yrotation Xrotation
				JOINT RightFoot
				{
					OFFSET -2.568260 -7.056230 0.000000
					CHANNELS 3 Zrotation Yrotation Xrotation
					JOINT RightToeBase
					{
						OFFSET -0.164730 -0.452590 2.363150
						CHANNELS 3 Zrotation Yrotation Xrotation
						End Site
						{
							OFFSET 0.000000 0.000000 0.000000
						}
					}
				}
			}
		}
	}
	JOINT LowerBack
	{
		OFFSET 0.000000 0.000000 0.000000
		CHANNELS 3 Zrotation Yrotation Xrotation
		JOINT Spine
		{
			OFFSET 0.028270 2.035590 -0.193380
			CHANNELS 3 Zrotation Yrotation Xrotation
			JOINT Spine1
			{
				OFFSET 0.056720 2.048850 -0.042750
				CHANNELS 3 Zrotation Yrotation Xrotation
				JOINT Neck
				{
					OFFSET 0.000000 0.000000 0.000000
					CHANNELS 3 Zrotation Yrotation Xrotation
					JOINT Neck1
					{
						OFFSET -0.054170 1.746240 0.172020
						CHANNELS 3 Zrotation Yrotation Xrotation
						JOINT Head
						{
							OFFSET 0.104070 1.761360 -0.123970
							CHANNELS 3 Zrotation Yrotation Xrotation
							End Site
							{
								OFFSET 0.000000 0.000000 0.000000
							}
						}
					}
				}
				JOINT LeftShoulder
				{
					OFFSET 0.000000 0.000000 0.000000
					CHANNELS 3 Zrotation Yrotation Xrotation
					JOINT LeftArm
					{
						OFFSET 3.362410 1.200890 -0.311210
						CHANNELS 3 Zrotation Yrotation Xrotation
						JOINT LeftForeArm
						{
							OFFSET 4.983000 -0.000000 -0.000000
							CHANNELS 3 Zrotation Yrotation Xrotation
							JOINT LeftHand
							{
								OFFSET 3.483560 -0.000000 -0.000000
								CHANNELS 3 Zrotation Yrotation Xrotation
								JOINT LeftFingerBase
								{
									OFFSET 0.000000 0.000000 0.000000
									CHANNELS 3 Zrotation Yrotation Xrotation
									JOINT LeftHandIndex1
									{
										OFFSET 0.715260 -0.000000 -0.000000
										CHANNELS 3 Zrotation Yrotation Xrotation
										End Site
										{
											OFFSET 0.000000 0.000000 0.000000
										}
									}
								}
								JOINT LThumb
								{
									OFFSET 0.000000 0.000000 0.000000
									CHANNELS 3 Zrotation Yrotation Xrotation
									End Site
									{
										OFFSET 0.000000 0.000000 0.000000
									}
								}
							}
						}
					}
				}
				JOINT RightShoulder
				{
					OFFSET 0.000000 0.000000 0.000000
					CHANNELS 3 Zrotation Yrotation Xrotation
					JOINT RightArm
					{
						OFFSET -3.136600 1.374050 -0.404650
						CHANNELS 3 Zrotation Yrotation Xrotation
						JOINT RightForeArm
						{
							OFFSET -5.241900 -0.000000 -0.000000
							CHANNELS 3 Zrotation Yrotation Xrotation
							JOINT RightHand
							{
								OFFSET -3.444170 -0.000000 -0.000000
								CHANNELS 3 Zrotation Yrotation Xrotation
								JOINT RightFingerBase
								{
									OFFSET 0.000000 0.000000 0.000000
									CHANNELS 3 Zrotation Yrotation Xrotation
									JOINT RightHandIndex1
									{
										OFFSET -0.622530 -0.000000 -0.000000
										CHANNELS 3 Zrotation Yrotation Xrotation
										End Site
										{
											OFFSET 0.000000 0.000000 0.000000
										}
									}
								}
								JOINT RThumb
								{
									OFFSET 0.000000 0.000000 0.000000
									CHANNELS 3 Zrotation Yrotation Xrotation
									End Site
									{
										OFFSET 0.000000 0.000000 0.000000
									}
								}
							}
						}
					}
				}
			}
		}
	}
}
MOTION
Frames: 7
Frame Time: 0.008333
3.404137 17.225082 1.023704 179.368403 -79.400347 -167.156117 -11.826917 2.849194 1.154363 -5.848174 20.457163 -16.118625 -2.809938 -1.108639 -4.988562 0.506655 3.994879 4.046659 0.940500 0.000000 -36.503700 9.207080 -1.176982 3.426612 1.808563 -0.446725 -13.280729 2.444557 2.005266 -1.617936 0.025931 -4.323680 1.089086 -1.914000 0.000001 -43.869700 1.589209 -5.603314 -5.919184 -0.016086 -5.909278 -3.845314 -7.415250 -5.785852 -1.548586 11.864754 -6.849786 -1.554142 -2.213554 -0.243457 1.735688 0.000000 0.000000 0.000000 17.954798 -3.590006 2.683598 20.883142 -65.286902 -89.358208 2.869306 0.049033 -0.061329 7.165361 -4.268096 -0.303256 -0.061518 0.519637 -0.000000 0.000000 0.000000 0.000000 0.000000 0.000000 0.000000 4.565914 -5.013365 -5.337901 91.196294 26.797453 39.439667 -178.383766 60.461552 179.835991 -13.126526 15.516346 -1.950673 0.218654 -1.029394 -0.000000 0.000000 0.000000 0.000000 0.000000 0.000000 0.000000 
3.400274 17.224301 1.020297 179.178774 -79.316454 -167.060400 -11.829441 2.842997 1.132864 -5.810076 20.462887 -15.984317 -2.799648 -1.104069 -4.890447 0.520209 4.116811 3.962390 0.956500 0.000000 -36.469199 9.209741 -1.186499 3.411706 1.772373 -0.452941 -13.206587 2.438535 1.985939 -1.533783 0.037346 -4.224131 1.022806 -1.886200 0.000000 -43.917100 1.643232 -5.529531 -5.880469 -0.002308 -5.840991 -3.878525 -7.377266 -5.730684 -1.693797 11.732014 -6.932566 -1.423814 -2.254642 -0.247731 1.774104 0.000000 0.000000 0.000000 17.797051 -3.268548 2.121994 17.097284 -66.032659 -84.433903 2.917210 -2.154400 -0.061256 6.779770 -4.264812 -0.287145 -0.043412 0.537112 -0.000000 0.000000 0.000000 0.000000 0.000000 0.000000 0.000000 4.442705 -4.976088 -5.256604 91.243505 26.535954 39.247489 -178.383750 60.485142 179.834743 -13.156111 15.507715 -1.954445 0.218793 -1.033049 -0.000000 0.000000 0.000000 0.000000 0.000000 0.000000 0.000000 
3.397381 17.223304 1.016625 179.001743 -79.244933 -166.991191 -11.830104 2.832627 1.102583 -5.757075 20.456146 -15.823128 -2.786174 -1.098204 -4.785630 0.535310 4.252200 3.871498 0.973900 0.000000 -36.429000 9.215149 -1.193938 3.383076 1.738289 -0.468974 -13.110764 2.430857 1.962829 -1.435220 0.048799 -4.122535 0.944186 -1.857200 -0.000000 -43.962100 1.696546 -5.447068 -5.812624 0.012609 -5.762307 -3.928089 -7.326921 -5.672308 -1.918169 11.584466 -7.008121 -1.233182 -2.306869 -0.253535 1.830211 0.000000 0.000000 0.000000 17.569796 -3.023910 1.426854 12.133817 -66.647020 -77.971191 3.039041 -4.951267 -0.062441 6.485423 -4.217411 -0.272526 -0.024030 0.559210 -0.000000 0.000000 0.000000 0.000000 0.000000 0.000000 0.000000 4.319023 -4.934446 -5.143941 91.258328 26.249794 39.041509 -178.391940 60.521796 179.833365 -13.198169 15.493031 -1.959520 0.219745 -1.037190 -0.000000 0.000000 0.000000 0.000000 0.000000 0.000000 0.000000 
3.395587 17.222067 1.012753 178.820633 -79.196051 -166.932242 -11.829221 2.817174 1.061281 -5.690038 20.432390 -15.628258 -2.769613 -1.091861 -4.683079 0.551349 4.398253 3.780183 0.992700 0.000000 -36.384600 9.223653 -1.199111 3.337700 1.704011 -0.499857 -12.989235 2.420815 1.935338 -1.323381 0.059780 -4.021390 0.852682 -1.827200 -0.000001 -44.006300 1.743474 -5.353624 -5.709955 0.025737 -5.669520 -3.990107 -7.270210 -5.606006 -2.207883 11.435660 -7.075673 -0.999978 -2.365347 -0.260310 1.898691 0.000000 0.000000 0.000000 17.257498 -2.832804 0.649373 6.342609 -67.046280 -70.509799 3.253762 -8.234183 -0.065366 6.336734 -4.118253 -0.261385 -0.003547 0.585770 -0.000000 0.000000 0.000000 0.000000 0.000000 0.000000 0.000000 4.204974 -4.914573 -5.009172 91.239987 25.947313 38.826221 -178.404779 60.566005 179.831908 -13.252487 15.473517 -1.965800 0.221234 -1.041186 -0.000000 0.000000 0.000000 0.000000 0.000000 0.000000 0.000000 
3.394650 17.220632 1.008785 178.651797 -79.179835 -166.889909 -11.825932 2.796729 1.012843 -5.615367 20.397762 -15.427081 -2.752667 -1.086169 -4.574649 0.566437 4.538464 3.685726 1.009800 0.000000 -36.340700 9.234400 -1.204477 3.283930 1.673301 -0.537289 -12.855290 2.408835 1.905522 -1.206364 0.068764 -3.934126 0.750918 -1.799800 -0.000000 -44.043900 1.787492 -5.243970 -5.587931 0.034417 -5.558189 -4.059377 -7.219671 -5.524344 -2.529831 11.298652 -7.135712 -0.748322 -2.424658 -0.267376 1.972301 0.000000 0.000000 0.000000 16.832634 -2.657875 -0.135416 0.285776 -67.214776 -62.835035 3.540823 -11.874420 -0.070195 6.341007 -3.981609 -0.254701 0.018048 0.616918 0.000000 0.000000 0.000000 0.000000 0.000000 0.000000 0.000000 4.110827 -4.939868 -4.865233 91.188934 25.639021 38.604403 -178.416460 60.610885 179.830423 -13.317891 15.451165 -1.973387 0.222834 -1.044430 -0.000000 0.000000 0.000000 0.000000 0.000000 0.000000 0.000000 
3.394498 17.218959 1.004756 178.467746 -79.200581 -166.845917 -11.821550 2.772683 0.956990 -5.532503 20.351455 -15.197799 -2.734841 -1.081835 -4.475496 0.580381 4.674302 3.596632 1.026300 0.000000 -36.294299 9.247676 -1.210755 3.220100 1.640819 -0.590529 -12.696460 2.394436 1.872286 -1.083737 0.076231 -3.853525 0.639445 -1.772800 0.000000 -44.079600 1.823031 -5.116099 -5.445873 0.033336 -5.425893 -4.126036 -7.191069 -5.420610 -2.847852 11.183490 -7.184874 -0.494800 -2.480710 -0.274245 2.045748 0.000000 0.000000 0.000000 16.292083 -2.477328 -0.857158 -5.572422 -67.177229 -55.563516 3.839221 -15.792785 -0.076697 6.456033 -3.862756 -0.253658 0.040567 0.653172 0.000000 0.000000 0.000000 0.000000 0.000000 0.000000 0.000000 4.046250 -5.013401 -4.722824 91.108722 25.336285 38.369942 -178.421266 60.651737 179.828901 -13.389193 15.425155 -1.981182 0.223937 -1.046613 -0.000000 0.000000 0.000000 0.000000 0.000000 0.000000 0.000000 
3.395120 17.217067 1.000733 178.255067 -79.257434 -166.792573 -11.816804 2.747361 0.898178 -5.444487 20.296753 -14.939796 -2.716479 -1.079240 -4.392604 0.592911 4.804113 3.517898 1.042200 -0.000000 -36.251500 9.262708 -1.219238 3.151444 1.604533 -0.658389 -12.511706 2.377830 1.836467 -0.959529 0.081950 -3.780082 0.521265 -1.746299 -0.000000 -44.116700 1.851172 -4.971017 -5.296644 0.019761 -5.274965 -4.181531 -7.196681 -5.293078 -3.123381 11.092782 -7.225713 -0.253349 -2.532117 -0.280640 2.114703 0.000000 0.000000 0.000000 15.632831 -2.274878 -1.462147 -10.904914 -66.981917 -49.087732 4.075446 -19.942937 -0.084423 6.678934 -3.707168 -0.254653 0.061271 0.690867 0.000000 0.000000 0.000000 0.000000 0.000000 0.000000 0.000000 4.019663 -5.130692 -4.590638 91.004861 25.060071 38.128118 -178.417238 60.693000 179.827345 -13.463143 15.398422 -1.988879 0.224295 -1.047795 -0.000000 0.000000 0.000000 0.000000 0.000000 0.000000 0.000000 
